<?xml version="1.0" encoding="UTF-8" standalone="no"?>
<svg
   fill="none"
   version="1.1"
   id="svg22"
   sodipodi:docname="logo.svg"
   inkscape:version="1.1.1 (3bf5ae0d25, 2021-09-20)"
   width="150"
   height="150"
   xmlns:inkscape="http://www.inkscape.org/namespaces/inkscape"
   xmlns:sodipodi="http://sodipodi.sourceforge.net/DTD/sodipodi-0.dtd"
   xmlns="http://www.w3.org/2000/svg"
   xmlns:svg="http://www.w3.org/2000/svg"
   xmlns:rdf="http://www.w3.org/1999/02/22-rdf-syntax-ns#"
   xmlns:cc="http://creativecommons.org/ns#"
   xmlns:dc="http://purl.org/dc/elements/1.1/">
  <metadata
     id="metadata28">
    <rdf:RDF>
      <cc:Work
         rdf:about="">
        <dc:format>image/svg+xml</dc:format>
        <dc:type
           rdf:resource="http://purl.org/dc/dcmitype/StillImage" />
      </cc:Work>
    </rdf:RDF>
  </metadata>
  <defs
     id="defs26" />
  <sodipodi:namedview
     pagecolor="#ffffff"
     bordercolor="#666666"
     borderopacity="1"
     objecttolerance="10"
     gridtolerance="10"
     guidetolerance="10"
     inkscape:pageopacity="0"
     inkscape:pageshadow="2"
     inkscape:window-width="1748"
     inkscape:window-height="742"
     id="namedview24"
     showgrid="false"
     inkscape:zoom="1.8883334"
     inkscape:cx="246.77846"
     inkscape:cy="64.077668"
     inkscape:window-x="26"
     inkscape:window-y="23"
     inkscape:window-maximized="0"
     inkscape:current-layer="svg22"
     inkscape:document-rotation="0"
     inkscape:pagecheckerboard="true" />
  <g
     id="g28"
     transform="matrix(1.8331358,0,0,1.8331358,31.852084,14.644525)">
    <path
       d="M 45.896212,23.480989 V 9.6494004 L 23.524665,-3.2653216 1.1793139,9.6494004 V 23.480989 L -10.766149,30.370587 V 56.200031 L 11.605398,69.114753 23.524665,62.225155 35.470128,69.114753 57.841675,56.200031 V 30.370587 Z M 50.03521,34.876332 V 51.694286 L 35.470128,60.103263 23.524665,53.213665 11.579202,60.103263 -2.9858805,51.694286 V 34.876332 L 8.9595829,27.986734 V 14.155145 L 23.524665,5.746168 38.089747,14.155145 v 13.831589 z"
       fill="#b0dff5"
       id="path18"
       style="stroke-width:2.61962" />
    <path
       d="M 23.524665,10.566267 1.1532489,23.480989 V 49.310433 L 23.524665,62.225155 45.896212,49.310433 V 23.480989 Z M 38.089747,44.804688 23.524665,53.213665 8.9597139,44.804688 V 27.986734 l 14.5649511,-8.408978 14.565082,8.408978 z"
       fill="#00aaeb"
       id="path20"
       style="stroke-width:2.61962" />
  </g>
</svg>
